<?xml version="1.0" standalone="no"?>
<!DOCTYPE svg PUBLIC "-//W3C//DTD SVG 20010904//EN"
 "http://www.w3.org/TR/2001/REC-SVG-20010904/DTD/svg10.dtd">
<svg version="1.0" xmlns="http://www.w3.org/2000/svg"
 width="700.000000pt" height="700.000000pt" viewBox="0 0 700.000000 700.000000"
 preserveAspectRatio="xMidYMid meet">
<metadata>
Created by potrace 1.14, written by Peter Selinger 2001-2017
</metadata>
<g transform="translate(0.000000,700.000000) scale(0.100000,-0.100000)"
fill="#000000" stroke="none">
<path d="M1048 5861 c-33 -26 -40 -64 -19 -104 10 -18 183 -306 386 -642 202
-335 434 -720 515 -855 81 -135 205 -339 274 -454 69 -116 131 -227 136 -247
18 -65 5 -126 -46 -213 -26 -45 -139 -234 -252 -421 -113 -187 -210 -349 -216
-360 -6 -11 -13 -22 -16 -25 -3 -3 -31 -48 -62 -100 -30 -52 -207 -347 -393
-655 -253 -420 -338 -568 -337 -590 1 -19 10 -38 27 -53 l27 -22 647 2 648 3
34 26 c29 23 210 311 399 634 33 56 210 348 232 383 10 15 21 34 25 42 13 24
56 95 379 630 168 278 316 526 330 552 32 63 35 148 6 204 -11 22 -73 128
-138 235 -65 107 -124 205 -131 219 -8 14 -58 97 -111 185 -82 135 -725 1199
-752 1245 -5 8 -39 63 -75 123 -36 59 -65 109 -65 111 0 2 -18 31 -40 64 -71
106 -3 97 -741 100 -633 3 -646 2 -671 -17z"/>
<path d="M3248 5863 c-36 -41 -40 -61 -20 -100 17 -34 462 -779 517 -863 27
-43 135 -222 163 -270 11 -19 124 -208 253 -420 128 -212 243 -403 256 -425
13 -22 35 -58 49 -80 75 -122 94 -193 73 -267 -5 -18 -53 -107 -108 -198 -54
-91 -163 -271 -241 -400 -78 -129 -145 -242 -150 -250 -5 -8 -31 -51 -58 -95
-88 -144 -325 -539 -339 -565 -8 -14 -54 -90 -103 -170 -75 -123 -180 -296
-240 -399 -9 -14 -28 -45 -43 -69 -44 -68 -49 -89 -32 -122 8 -16 24 -34 34
-40 13 -6 237 -10 651 -10 603 0 632 1 669 19 20 11 42 25 48 33 10 12 513
843 553 913 9 17 54 91 100 165 46 74 91 149 100 165 9 17 141 236 293 488
152 251 286 476 297 498 27 52 28 133 3 190 -15 33 -294 504 -432 729 -21 33
-377 623 -392 648 -9 15 -89 149 -179 297 -90 149 -170 282 -179 297 -117 197
-166 270 -194 290 l-32 23 -651 3 c-613 2 -651 2 -666 -15z"/>
</g>
</svg>
