<?xml version="1.0" encoding="UTF-8"?><svg id="Layer_1" xmlns="http://www.w3.org/2000/svg" viewBox="0 0 350 350"><defs><style>.cls-1{fill:#fff;}</style></defs><path class="cls-1" d="m115.69,168.8L51.35,62.07c-1.61-2.67.31-6.07,3.43-6.07h60.66c2.81,0,5.4,1.47,6.85,3.87l65.67,108.94c2.3,3.81,2.3,8.58,0,12.39l-65.67,108.93c-1.45,2.4-4.05,3.87-6.85,3.87h-60.66c-3.11,0-5.03-3.4-3.43-6.07l64.34-106.74c2.3-3.81,2.3-8.58,0-12.39Z"/><path class="cls-1" d="m225.69,168.8l-64.35-106.74c-1.61-2.67.31-6.07,3.43-6.07h60.66c2.81,0,5.4,1.47,6.85,3.87l65.67,108.94c2.3,3.81,2.3,8.58,0,12.39l-65.67,108.93c-1.45,2.4-4.05,3.87-6.85,3.87h-60.66c-3.11,0-5.03-3.4-3.43-6.07l64.35-106.74c2.3-3.81,2.3-8.58,0-12.39Z"/></svg>